PathFileType	4	(X/Y/Z)	TVC_41_BWA_04_walk_RCNL2025.trc
DataRate	CameraRate	NumFrames	NumMarkers	Units	OrigDataRate	OrigDataStartFrame	OrigNumFrames
100	100	11	27	mm	100	1	553
Frame#	Time	R_Shoulder			L_Shoulder			C7			J_Notch			R_Elbow			L_Elbow			R_Wrist			L_Wrist			R_Asis			L_Asis			R_Psis			L_Psis			Sacral			Thoracic			Sternum			R_Thigh_Lateral			R_Knee_Lateral			R_Shank_Lateral			R_Ankle_Lateral			R_Heel			R_Toe			L_Thigh_Lateral			L_Knee_Lateral			L_Shank_Lateral			L_Ankle_Lateral			L_Heel			L_Toe		
		X1	Y1	Z1	X2	Y2	Z2	X3	Y3	Z3	X4	Y4	Z4	X5	Y5	Z5	X6	Y6	Z6	X7	Y7	Z7	X8	Y8	Z8	X9	Y9	Z9	X10	Y10	Z10	X11	Y11	Z11	X12	Y12	Z12	X13	Y13	Z13	X14	Y14	Z14	X15	Y15	Z15	X16	Y16	Z16	X17	Y17	Z17	X18	Y18	Z18	X19	Y19	Z19	X20	Y20	Z20	X21	Y21	Z21	X22	Y22	Z22	X23	Y23	Z23	X24	Y24	Z24	X25	Y25	Z25	X26	Y26	Z26	X27	Y27	Z27
1	0.00000000	-953.010803	1223.399048	439.610352	-905.366394	1243.932129	106.561012	-968.865601	1300.548218	269.792358	-863.695618	1175.714844	286.399597	-1093.636963	961.767456	446.247406	-986.194641	964.636719	30.779593	-915.531342	881.668884	452.392410	-874.709167	790.383942	5.256989	-987.507446	856.565369	390.530609	-938.703979	823.388611	151.909775	-1123.528442	887.877441	295.883972	-1115.670288	870.251099	207.464447	-1119.599365	879.064270	251.674210	-1053.576782	1014.894958	243.727325	-860.619568	992.448669	271.082275	-1041.918579	631.016357	466.909760	-1036.043945	404.291870	367.916138	-1067.440796	272.856232	424.274200	-1061.543701	68.475273	337.288605	-1109.037598	45.565113	285.738007	-950.973633	41.002144	337.616241	-977.797852	585.485657	34.899521	-940.998901	383.758606	104.410698	-1033.361816	279.581146	38.541828	-1170.586426	115.621010	95.162323	-1220.623047	116.833786	134.255844	-1073.863403	43.818130	114.025772
2	0.01000000	-950.937500	1222.901001	440.499695	-903.082947	1243.166260	107.508789	-966.572876	1300.020508	270.685577	-861.685181	1174.948975	287.350525	-1092.053223	961.549927	447.245056	-984.558472	963.975159	32.007442	-913.887756	881.088074	453.201447	-873.152283	789.560425	6.982053	-987.295471	856.109741	391.514313	-937.563232	822.917480	152.758667	-1122.373901	887.761597	296.490997	-1114.364014	869.998535	208.086685	-1118.368958	878.880066	252.288841	-1051.958740	1014.720520	244.649902	-859.181152	991.624817	272.119385	-1041.758057	630.696655	467.446899	-1035.904175	403.977997	368.242432	-1067.305054	272.553467	424.592407	-1061.659668	68.211197	337.338409	-1109.073486	45.330807	285.675781	-951.088074	40.988552	337.615936	-973.621643	585.698547	35.003716	-932.994507	384.751984	104.371773	-1025.041504	280.431702	38.754032	-1162.772827	117.315224	95.774269	-1212.889160	118.753853	135.113770	-1066.541382	45.175861	113.685860
3	0.02000000	-948.905823	1222.432251	441.279053	-900.834656	1242.407715	108.344841	-964.320435	1299.507812	271.465393	-859.708313	1174.214844	288.199402	-1090.491821	961.344971	448.139832	-982.945740	963.310669	33.127987	-912.303558	880.538269	453.924332	-871.675079	788.702606	8.595165	-987.035645	855.649414	392.428192	-936.409119	822.452332	153.531937	-1121.201538	887.637695	297.022400	-1113.064819	869.743408	208.637161	-1117.133179	878.690552	252.829781	-1050.364746	1014.549683	245.458328	-857.757019	990.833862	273.063232	-1041.550049	630.416443	467.948364	-1035.733765	403.681000	368.544586	-1067.140747	272.279449	424.907410	-1061.769775	67.965454	337.400726	-1109.110840	45.127472	285.645538	-951.198242	40.974339	337.620270	-969.859009	585.829773	35.089268	-925.065002	385.817352	104.367462	-1016.597961	281.237762	39.006439	-1154.254272	118.564308	96.481743	-1204.419434	120.001205	136.114044	-1058.248535	46.549137	113.330276
4	0.03000000	-946.918701	1221.996216	441.945282	-898.617493	1241.659912	109.066841	-962.108337	1299.012939	272.128052	-857.764526	1173.515869	288.945038	-1088.955688	961.155090	448.925476	-981.346497	962.645813	34.134609	-910.783264	880.020660	454.561707	-870.266266	787.814514	10.088659	-986.720337	855.185791	393.267487	-935.234985	821.995056	154.228729	-1120.008789	887.507141	297.472961	-1111.767090	869.487610	209.110672	-1115.887939	878.497375	253.291817	-1048.795166	1014.382751	246.147522	-856.344666	990.079407	273.913147	-1041.292358	630.173584	468.411255	-1035.531982	403.400421	368.820068	-1066.948853	272.033295	425.215118	-1061.874023	67.737587	337.473450	-1109.151123	44.952679	285.647308	-951.304077	40.959438	337.629028	-966.526184	585.865540	35.157875	-917.244690	386.944000	104.401001	-1008.064331	281.989441	39.299458	-1145.041016	119.340935	97.274773	-1195.222046	120.546738	137.236938	-1048.988647	47.911674	112.975441
5	0.04000000	-944.978882	1221.595825	442.495667	-896.427551	1240.926392	109.672897	-959.936279	1298.538452	272.670288	-855.853027	1172.855713	289.586517	-1087.447021	960.983032	449.596313	-979.750916	961.983398	35.021301	-909.330750	879.536469	455.114548	-868.914246	786.900696	11.455433	-986.342102	854.720703	394.027496	-934.034119	821.547913	154.848373	-1118.793335	887.371521	297.837585	-1110.465088	869.232971	209.502136	-1114.629211	878.302246	253.669861	-1047.250244	1014.219727	246.712997	-854.941345	989.364868	274.668640	-1040.982056	629.965698	468.832153	-1035.298096	403.135803	369.066101	-1066.730957	271.813995	425.510773	-1061.972412	67.527061	337.553802	-1109.195801	44.803604	285.680267	-951.405518	40.943844	337.641785	-963.627380	585.794312	35.211025	-909.566223	388.120148	104.475121	-999.474182	282.677155	39.632866	-1135.155884	119.628853	98.141884	-1185.318115	120.379036	138.459488	-1038.784668	49.236473	112.640091
6	0.05000000	-943.088867	1221.234375	442.927826	-894.261047	1240.210693	110.161583	-957.803955	1298.087280	273.089386	-853.973145	1172.237793	290.123260	-1085.967773	960.831421	450.147156	-978.149231	961.326538	35.782730	-907.949219	879.087097	455.584030	-867.607117	785.966034	12.689029	-985.893738	854.256042	394.703827	-932.799866	821.113342	155.390320	-1117.552856	887.232605	298.111298	-1109.153198	868.981567	209.806564	-1113.353027	878.107086	253.958931	-1045.729736	1014.060791	247.150986	-853.544556	988.693909	275.329468	-1040.616333	629.789917	469.207123	-1035.031860	402.886871	369.279572	-1066.488770	271.620392	425.789154	-1062.064697	67.333359	337.638550	-1109.245605	44.677158	285.742615	-951.502441	40.927570	337.658081	-961.154480	585.607178	35.249981	-902.059937	389.333099	104.592026	-990.861694	283.291870	40.005814	-1124.635376	119.423386	99.070526	-1174.741577	119.504532	139.756638	-1027.680176	50.496647	112.344536
7	0.06000000	-941.250854	1220.914673	443.239960	-892.114136	1239.516724	110.531975	-955.710876	1297.662476	273.383209	-852.124023	1171.665405	290.554932	-1084.519409	960.702881	450.573273	-976.531921	960.678406	36.414284	-906.641022	878.673920	455.971573	-866.332794	785.015961	13.783706	-985.368530	853.794067	395.292236	-931.525879	820.694031	155.854156	-1116.285156	887.092285	298.289398	-1107.825317	868.735596	210.019165	-1112.055237	877.913940	254.154282	-1044.233276	1013.906067	247.458450	-852.151611	988.069885	275.895569	-1040.192261	629.643311	469.531860	-1034.732666	402.653473	369.457214	-1066.224121	271.451385	426.044556	-1062.150879	67.155998	337.723999	-1109.300781	44.570114	285.831635	-951.594666	40.910683	337.677277	-959.087280	585.298157	35.275803	-894.754150	390.569580	104.753342	-982.261047	283.825348	40.416836	-1113.529907	118.731552	100.047577	-1163.539429	117.946983	141.102432	-1015.739014	51.666229	112.109833
8	0.07000000	-939.466736	1220.639893	443.430634	-889.983276	1238.848511	110.783615	-953.656494	1297.266968	273.550140	-850.304871	1171.142090	290.881592	-1083.103027	960.600037	450.870636	-974.890015	960.042542	36.912128	-905.407501	878.298706	456.278839	-865.079315	784.056213	14.734500	-984.760132	853.337219	395.788818	-930.206116	820.292786	156.239624	-1114.988281	886.952576	298.367401	-1106.475586	868.497498	210.135330	-1110.731934	877.725037	254.251366	-1042.759766	1013.755615	247.633087	-850.760010	987.496216	276.367126	-1039.707153	629.522766	469.801697	-1034.400391	402.435577	369.595551	-1065.939209	271.305908	426.270966	-1062.230347	66.994576	337.806091	-1109.361450	44.479275	285.943512	-951.681702	40.893265	337.698700	-957.393982	584.864990	35.289345	-887.674500	391.815857	104.960106	-973.706421	284.270203	40.863880	-1101.903687	117.571671	101.059814	-1151.772217	115.746292	142.471161	-1003.044250	52.720978	111.956886
9	0.08000000	-937.738281	1220.412720	443.498901	-887.865051	1238.209839	110.916527	-951.640137	1296.903809	273.589111	-848.514709	1170.670898	291.103485	-1081.718872	960.525452	451.035706	-973.214722	959.422607	37.273209	-904.249023	877.963287	456.507507	-863.834534	783.092865	15.537274	-984.062683	852.888245	396.189911	-928.834717	819.912781	156.546555	-1113.660400	886.815613	298.341156	-1105.098145	868.269653	210.150772	-1109.379272	877.542633	254.245964	-1041.307373	1013.609680	247.673325	-849.367188	986.976257	276.744507	-1039.158447	629.425354	470.011627	-1034.034912	402.233459	369.691101	-1065.636108	271.183075	426.462067	-1062.302612	66.848854	337.880310	-1109.426880	44.401623	286.073547	-951.763245	40.875435	337.721497	-956.032166	584.309082	35.291245	-880.844116	393.058197	105.212700	-965.231384	284.620117	41.344341	-1089.833984	115.972679	102.094337	-1139.512939	112.956787	143.838501	-989.697083	53.639088	111.905479
10	0.09000000	-936.066711	1220.235840	443.444305	-885.756165	1237.605225	110.931229	-949.661011	1296.576294	273.499725	-846.752686	1170.255127	291.221252	-1080.367310	960.481567	451.065582	-971.497925	958.822449	37.495293	-903.164825	877.669769	456.659409	-862.586700	782.132385	16.188757	-983.270996	852.450012	396.492279	-927.406372	819.557190	156.774918	-1112.299805	886.683655	298.206909	-1103.687378	868.054626	210.061478	-1107.993591	877.369141	254.134193	-1039.873901	1013.468750	247.578369	-847.970764	986.513184	277.028229	-1038.543701	629.348145	470.156525	-1033.635986	402.047638	369.740295	-1065.317383	271.082184	426.611450	-1062.366943	66.718765	337.941956	-1109.495850	44.334465	286.215881	-951.838562	40.857342	337.744812	-954.950073	583.635864	35.281944	-874.283142	394.282928	105.510857	-956.869141	284.870087	41.855087	-1077.410034	113.973015	103.138931	-1126.846558	109.645065	145.182495	-975.815063	54.401829	111.973389
11	0.10000000	-934.453064	1220.111816	443.266907	-883.653625	1237.038696	110.828720	-947.718445	1296.287354	273.282104	-845.017700	1169.897461	291.235809	-1079.047729	960.470764	450.958008	-969.732056	958.246155	37.576973	-902.152954	877.420563	456.736328	-861.324280	781.181519	16.686577	-982.380493	852.025818	396.692993	-925.916016	819.229431	156.924774	-1110.904907	886.559021	297.961243	-1102.237549	867.855225	209.863861	-1106.571228	877.207123	253.912552	-1038.456543	1013.333374	247.348190	-846.568420	986.110107	277.218994	-1037.861572	629.288818	470.231049	-1033.203613	401.878845	369.739532	-1064.985352	271.002930	426.712616	-1062.422363	66.604469	337.986023	-1109.566772	44.275589	286.363892	-951.906982	40.839153	337.767731	-954.088379	582.854553	35.261669	-868.009033	395.476959	105.853622	-948.651733	285.016388	42.392536	-1064.731934	111.619247	104.182388	-1113.868774	105.887428	146.484268	-961.529175	54.994076	112.175507
